<svg xmlns="http://www.w3.org/2000/svg" xml:space="preserve" width="2000" height="226" data-id="lg_3H8TsbeUokMzJU78wm" data-version="1" viewBox="0 0 2000 226"><g data-padding="20"><g transform="translate(10 4.043)scale(.96422)"><path fill="#111" d="M838.574-.16c-48.852 3.454-87.88 42.482-91.334 91.334-.27 3.812 2.74 7.058 6.561 7.058h85.255a6.577 6.577 0 0 0 6.578-6.577V6.4c0-3.821-3.246-6.83-7.058-6.56Zm120.382 91.902C955.502 42.89 916.474 3.862 867.622.408c-3.812-.27-7.058 2.74-7.058 6.56v85.256a6.577 6.577 0 0 0 6.577 6.578h85.254c3.821 0 6.83-3.246 6.56-7.058Zm-8.482 20.308c-48.852 3.454-87.88 42.482-91.334 91.334-.27 3.812 2.74 7.058 6.561 7.058h85.255a6.577 6.577 0 0 0 6.578-6.577V118.61c0-3.821-3.246-6.83-7.058-6.56Zm-203.232 7.912c3.454 48.852 42.482 87.88 91.334 91.334 3.812.27 7.058-2.74 7.058-6.561V119.48a6.577 6.577 0 0 0-6.577-6.578h-85.254c-3.82 0-6.829 3.246-6.56 7.058Z"/><rect width="361.4" height="126.175" x="639.827" y="-63.883" fill="none" rx="0" ry="0" transform="matrix(.91 0 0 .91 395.13 169.49)"/><path fill="#111" d="M1004.62 201.927q-6.3 0-10.45-1.14-4.14-1.15-6.64-2.86-2.51-1.71-3.85-3.4-.44-.64-.79-1.24-.35-.59-.5-1.33-.2-1-.39-2.61-.2-1.61-.05-3.74.05-.9.34-1.24.35-.4 1.14-.6 1.44-.35 3.75-.62t3.3-.27q1.04 0 1.68.39.65.4 1.54 1.34.99 1.04 3.43 2.66 2.43 1.61 7.49 1.61 4.86 0 7.34-2.03 2.48-2.04 2.48-5.66 0-1.93-1.17-3.65-1.16-1.71-4.24-3.42-3.07-1.71-8.78-3.6-9.42-3.17-13.59-7.88-4.17-4.72-4.17-13.1 0-6.95 3.37-11.61 3.38-4.66 9.33-7.04t13.74-2.38q6.01 0 9.95 1.41t6.13 3.17q2.18 1.77 2.82 2.86.4.64.52.96.13.33.18.87.15 1.54.1 3.43-.05 1.88-.35 4.26-.15.8-.55 1.09-.34.25-1.09.25-4.81.1-7.44-.5-1.04-.24-1.39-.49-.34-.25-.89-.79-.79-.95-2.51-2.21-1.71-1.27-5.48-1.27-5.21 0-7.39 2.36t-2.18 5.28q0 3.47 3.22 5.43 3.23 1.96 10.17 4.44 5.81 2.04 9.97 4.42 4.17 2.38 6.38 6.1t2.21 9.82q0 7.59-3.5 12.6-3.5 5.02-9.53 7.47-6.02 2.46-13.66 2.46m69.85-59.29v55.47q0 1.49-.62 2.06t-2.11.57h-10.57q-1.49 0-2.11-.57t-.62-2.06v-55.47h-14.78q-1.19 0-1.79-.39-1.29-.9-2.65-2.14-1.37-1.24-2.95-2.97-.5-.65-.5-1.04 0-.45.5-1 1.58-1.73 2.95-2.97 1.36-1.24 2.65-2.14.7-.39 1.79-.39h45.64q1.19 0 1.79.39 1.29.9 2.67 2.14 1.39 1.24 2.93 2.97.5.65.5 1.05 0 .44-.5.99-1.54 1.73-2.93 2.97-1.38 1.24-2.67 2.14-.7.39-1.79.39Zm67.86 58.1h-24.95q-5.11 0-7.77-1.29-2.65-1.29-3.57-4.22t-.92-7.79v-44.55q0-4.96.92-7.86t3.57-4.17q2.66-1.26 7.77-1.26h23.31q1.2 0 1.79.39 1.29.9 2.68 2.14t2.93 2.97q.49.65.49 1.05 0 .44-.49.99-1.54 1.73-2.93 2.97t-2.68 2.14q-.69.39-1.79.39h-13.89q-3.27 0-4.46 1.39t-1.19 4.77v9.62h17.81q1.19 0 1.78.4 1.29.89 2.68 2.13t2.93 2.98q.5.64.5 1.04 0 .44-.5.99-1.54 1.74-2.93 2.98t-2.68 2.13q-.69.4-1.78.4h-17.81v10.02q0 3.32 1.19 4.76t4.46 1.44h15.53q1.19 0 1.79.4 1.29.89 2.68 2.13t2.92 2.98q.5.64.5 1.04 0 .44-.5.99-1.53 1.74-2.92 2.98t-2.68 2.13q-.7.4-1.79.4m45.79 0h-15.23q-5.11 0-7.76-1.29-2.66-1.29-3.57-4.22-.92-2.93-.92-7.79v-44.55q0-4.96.92-7.86.91-2.9 3.57-4.17 2.65-1.26 7.76-1.26h15.23q10.67 0 18.68 3.17 8.01 3.18 12.48 10.74 4.46 7.57 4.46 20.76 0 13.2-4.46 21.21-4.47 8.01-12.48 11.63-8.01 3.63-18.68 3.63m-3.62-58.1h-2.18q-3.28 0-4.47 1.39t-1.19 4.77v32.74q0 3.32 1.19 4.76t4.47 1.44h2.28q10.61 0 16.44-5.21t5.83-18.06q0-8.58-2.65-13.32-2.66-4.74-7.67-6.62-5.01-1.89-12.05-1.89m83.29 32.8v22.67q0 1.49-.62 2.06t-2.11.57h-10.56q-1.49 0-2.11-.57t-.62-2.06v-22.38l-9.87-11.46q-3.53-4.11-5.93-7.39-2.41-3.27-3.6-6.77t-1.19-8.21v-4.37q0-1.43.5-2.18 2.23-3.27 6.25-6.89.74-.6 1.34-.6.59 0 1.24.6 2.18 1.88 3.67 3.59t2.58 3.3q.49.8.49 2.18v4.32q0 3.22 1.89 7.14t6.35 8.64l4.81 5.06 4.71-5.06q4.02-4.32 6.13-8.24t2.11-7.49v-4.37q0-1.43.5-2.18 2.13-3.22 6.05-6.89.74-.6 1.24-.6.59 0 1.24.6 2.08 1.88 3.55 3.59 1.46 1.71 2.5 3.3.5.8.5 2.18v4.37q0 5.46-2.38 10.44-2.39 4.99-8.09 11.34Z"/></g><path fill="transparent" stroke="transparent" d="M720.5 0h559v226h-559z"/></g></svg>