<svg xmlns="http://www.w3.org/2000/svg" xml:space="preserve" width="2000" height="560" data-id="lg_3H8TsbeUokMzJU78wm" data-version="1" viewBox="0 0 2000 560"><g data-padding="20"><path fill="#111" d="M964.588 10.047C838.961 18.93 738.597 119.294 729.714 244.922c-.694 9.803 7.046 18.149 16.873 18.149h219.242c9.341 0 16.914-7.573 16.914-16.913V26.918c0-9.826-8.346-17.561-18.15-16.871Zm305.697 236.326c-8.882-125.628-109.246-225.992-234.874-234.874-9.803-.695-18.149 7.045-18.149 16.872v219.242c0 9.342 7.572 16.915 16.913 16.915h219.239c9.827 0 17.562-8.347 16.872-18.15Zm-21.773 48.408c-125.628 8.883-225.991 109.247-234.874 234.874-.694 9.804 7.046 18.15 16.872 18.15h219.242c9.342 0 16.915-7.573 16.915-16.913v-219.24c0-9.826-8.346-17.561-18.15-16.872ZM729.72 315.08c8.883 125.628 109.247 225.991 234.874 234.874 9.804.694 18.15-7.046 18.15-16.872V313.839c0-9.342-7.573-16.915-16.913-16.915H746.59c-9.826 0-17.561 8.346-16.872 18.15Z"/><path fill="transparent" stroke="transparent" d="M719.5 0h561v560h-561z"/></g></svg>